<svg width="147" height="18" viewBox="0 0 147 18" fill="none" xmlns="http://www.w3.org/2000/svg">
<g clip-path="url(#clip0_1_1186)">
<path d="M14.9362 9.771C14.6452 9.4035 14.7285 9.24 14.9362 8.9115C14.94 8.90775 17.3422 5.58825 17.5897 4.4625L17.5912 4.46175C17.7142 4.0515 17.5912 3.75 16.9965 3.75H15.0285C14.5275 3.75 14.2965 4.00875 14.1727 4.29825C14.1727 4.29825 13.1707 6.69675 11.7532 8.2515C11.2957 8.70075 11.0842 8.84475 10.8345 8.84475C10.7115 8.84475 10.5202 8.70075 10.5202 8.2905V4.46175C10.5202 3.96975 10.38 3.75 9.96525 3.75H6.87075C6.5565 3.75 6.36975 3.9795 6.36975 4.19325C6.36975 4.65975 7.0785 4.767 7.152 6.0795V8.92725C7.152 9.55125 7.03875 9.666 6.7875 9.666C6.1185 9.666 4.49475 7.25775 3.5325 4.5015C3.33825 3.96675 3.1485 3.75075 2.64375 3.75075H0.675C0.11325 3.75075 0 4.0095 0 4.299C0 4.8105 0.669 7.35375 3.111 10.7138C4.7385 13.0073 7.0305 14.25 9.1155 14.25C10.3687 14.25 10.5217 13.974 10.5217 13.4993C10.5217 11.3078 10.4085 11.1008 11.0362 11.1008C11.3272 11.1008 11.8282 11.2448 12.9982 12.351C14.3355 13.6628 14.5552 14.25 15.3037 14.25H17.2717C17.8327 14.25 18.117 13.974 17.9535 13.4295C17.5792 12.2843 15.0502 9.9285 14.9362 9.771V9.771Z" fill="#0F68AC"/>
</g>
<g clip-path="url(#clip1_1_1186)">
<path d="M56.1303 10.7301L56.1236 10.7864C54.4743 9.96438 54.3018 9.85488 54.0888 10.1744C53.9411 10.3956 53.5106 10.8974 53.3808 11.0459C53.2496 11.1921 53.1191 11.2034 52.8964 11.1021C52.6714 10.9896 51.9491 10.7534 51.0941 9.98838C50.4281 9.39213 49.9811 8.66088 49.8491 8.43588C49.6294 8.05638 50.0891 8.00238 50.5076 7.21038C50.5826 7.05288 50.5444 6.92913 50.4889 6.81738C50.4326 6.70488 49.9849 5.60238 49.7974 5.16288C49.6174 4.72488 49.4321 4.78038 49.2934 4.78038C48.8614 4.74288 48.5456 4.74888 48.2674 5.03838C47.0569 6.36888 47.3621 7.74138 48.3979 9.20088C50.4334 11.8649 51.5179 12.3554 53.5009 13.0364C54.0364 13.2066 54.5246 13.1826 54.9108 13.1271C55.3413 13.0589 56.2361 12.5864 56.4228 12.0576C56.6141 11.5289 56.6141 11.0901 56.5578 10.9889C56.5023 10.8876 56.3553 10.8314 56.1303 10.7301V10.7301Z" fill="#0F68AC"/>
<path d="M58.39 2.58658C52.6232 -2.98816 43.0795 1.05508 43.0757 8.91958C43.0757 10.4916 43.4875 12.0246 44.272 13.3783L43 17.9998L47.7512 16.7608C53.68 19.9633 60.997 15.7108 61 8.92408C61 6.54208 60.07 4.30033 58.3787 2.61583L58.39 2.58658ZM59.5015 8.89933C59.497 14.6241 53.2127 18.1993 48.2425 15.2773L47.9725 15.1168L45.16 15.8481L45.9137 13.1143L45.7345 12.8331C42.6415 7.90933 46.195 1.47434 52.054 1.47434C54.0445 1.47434 55.9127 2.25058 57.3197 3.65683C58.726 5.05108 59.5015 6.91933 59.5015 8.89933V8.89933Z" fill="#0F68AC"/>
</g>
<g clip-path="url(#clip2_1_1186)">
<path d="M93.0626 11.3856L92.7649 15.5736C93.1909 15.5736 93.3754 15.3906 93.5966 15.1708L95.5939 13.2621L99.7324 16.2928C100.491 16.7158 101.026 16.4931 101.231 15.5946L103.947 2.86557L103.948 2.86481C104.189 1.74282 103.542 1.30407 102.803 1.57932L86.8354 7.69256C85.7456 8.11556 85.7621 8.72306 86.6501 8.99831L90.7324 10.2681L100.215 4.33481C100.661 4.03931 101.067 4.20281 100.733 4.49831L93.0626 11.3856Z" fill="#0F68AC"/>
</g>
<g clip-path="url(#clip3_1_1186)">
<path d="M138.003 4.37842C135.451 4.37842 133.385 6.44692 133.385 8.99691C133.385 11.5492 135.453 13.6154 138.003 13.6154C140.555 13.6154 142.622 11.5469 142.622 8.99691C142.622 6.44467 140.553 4.37842 138.003 4.37842V4.37842ZM138.003 11.9947C136.346 11.9947 135.005 10.6529 135.005 8.99691C135.005 7.34091 136.347 5.99917 138.003 5.99917C139.659 5.99917 141.001 7.34091 141.001 8.99691C141.002 10.6529 139.66 11.9947 138.003 11.9947V11.9947Z" fill="#0F68AC"/>
<path d="M141.711 0.0570283C140.055 -0.0202217 135.953 -0.0164717 134.296 0.0570283C132.839 0.125278 131.554 0.477029 130.519 1.51278C128.788 3.24378 129.009 5.57628 129.009 8.99704C129.009 12.498 128.814 14.7765 130.519 16.4813C132.256 18.2183 134.623 17.991 138.003 17.991C141.471 17.991 142.668 17.9933 143.894 17.5185C145.561 16.8713 146.82 15.381 146.943 12.7043C147.021 11.0475 147.016 6.94653 146.943 5.28903C146.794 2.12928 145.099 0.213028 141.711 0.0570283V0.0570283ZM144.332 15.336C143.197 16.4708 141.623 16.3695 137.981 16.3695C134.231 16.3695 132.727 16.425 131.63 15.3248C130.366 14.067 130.595 12.0473 130.595 8.98504C130.595 4.84128 130.17 1.85703 134.329 1.64403C135.284 1.61028 135.565 1.59903 137.971 1.59903L138.004 1.62153C142.001 1.62153 145.137 1.20303 145.325 5.36103C145.368 6.30978 145.378 6.59478 145.378 8.99629C145.377 12.7028 145.447 14.2155 144.332 15.336V15.336Z" fill="#0F68AC"/>
<path d="M142.804 5.27568C143.4 5.27568 143.884 4.79248 143.884 4.19643C143.884 3.60038 143.4 3.11719 142.804 3.11719C142.208 3.11719 141.725 3.60038 141.725 4.19643C141.725 4.79248 142.208 5.27568 142.804 5.27568Z" fill="#0F68AC"/>
</g>
<defs>
<clipPath id="clip0_1_1186">
<rect width="18" height="18" fill="white"/>
</clipPath>
<clipPath id="clip1_1_1186">
<rect width="18" height="18" fill="white" transform="translate(43)"/>
</clipPath>
<clipPath id="clip2_1_1186">
<rect width="18" height="18" fill="white" transform="translate(86)"/>
</clipPath>
<clipPath id="clip3_1_1186">
<rect width="18" height="18" fill="white" transform="translate(129)"/>
</clipPath>
</defs>
</svg>
