<svg width="174" height="36" viewBox="0 0 174 36" fill="none" xmlns="http://www.w3.org/2000/svg">
<rect width="36" height="36" fill="#0F68AC"/>
<g clip-path="url(#clip0_1_1221)">
<path d="M23.9362 18.771C23.6452 18.4035 23.7285 18.24 23.9362 17.9115C23.94 17.9078 26.3422 14.5883 26.5897 13.4625L26.5912 13.4618C26.7142 13.0515 26.5912 12.75 25.9965 12.75H24.0285C23.5275 12.75 23.2965 13.0088 23.1727 13.2983C23.1727 13.2983 22.1707 15.6968 20.7532 17.2515C20.2957 17.7008 20.0842 17.8448 19.8345 17.8448C19.7115 17.8448 19.5202 17.7008 19.5202 17.2905V13.4618C19.5202 12.9698 19.38 12.75 18.9652 12.75H15.8707C15.5565 12.75 15.3697 12.9795 15.3697 13.1933C15.3697 13.6598 16.0785 13.767 16.152 15.0795V17.9273C16.152 18.5513 16.0387 18.666 15.7875 18.666C15.1185 18.666 13.4947 16.2578 12.5325 13.5015C12.3382 12.9667 12.1485 12.7507 11.6437 12.7507H9.675C9.11325 12.7507 9 13.0095 9 13.299C9 13.8105 9.669 16.3538 12.111 19.7138C13.7385 22.0073 16.0305 23.25 18.1155 23.25C19.3687 23.25 19.5217 22.974 19.5217 22.4993C19.5217 20.3078 19.4085 20.1008 20.0362 20.1008C20.3272 20.1008 20.8282 20.2448 21.9982 21.351C23.3355 22.6628 23.5552 23.25 24.3037 23.25H26.2717C26.8327 23.25 27.117 22.974 26.9535 22.4295C26.5792 21.2843 24.0502 18.9285 23.9362 18.771V18.771Z" fill="white"/>
</g>
<rect x="46" width="36" height="36" fill="#0F68AC"/>
<g clip-path="url(#clip1_1_1221)">
<path d="M68.1303 19.7301L68.1236 19.7863C66.4743 18.9643 66.3018 18.8548 66.0888 19.1743C65.9411 19.3956 65.5106 19.8973 65.3808 20.0458C65.2496 20.1921 65.1191 20.2033 64.8964 20.1021C64.6714 19.9896 63.9491 19.7533 63.0941 18.9883C62.4281 18.3921 61.9811 17.6608 61.8491 17.4358C61.6294 17.0563 62.0891 17.0023 62.5076 16.2103C62.5826 16.0528 62.5444 15.9291 62.4889 15.8173C62.4326 15.7048 61.9849 14.6023 61.7974 14.1628C61.6174 13.7248 61.4321 13.7803 61.2934 13.7803C60.8614 13.7428 60.5456 13.7488 60.2674 14.0383C59.0569 15.3688 59.3621 16.7413 60.3979 18.2008C62.4334 20.8648 63.5179 21.3553 65.5009 22.0363C66.0364 22.2066 66.5246 22.1826 66.9108 22.1271C67.3413 22.0588 68.2361 21.5863 68.4228 21.0576C68.6141 20.5288 68.6141 20.0901 68.5578 19.9888C68.5023 19.8876 68.3553 19.8313 68.1303 19.7301V19.7301Z" fill="white"/>
<path d="M70.39 11.5866C64.6232 6.01184 55.0795 10.0551 55.0757 17.9196C55.0757 19.4916 55.4875 21.0246 56.272 22.3783L55 26.9998L59.7512 25.7608C65.68 28.9633 72.997 24.7108 73 17.9241C73 15.5421 72.07 13.3003 70.3787 11.6158L70.39 11.5866ZM71.5015 17.8993C71.497 23.6241 65.2127 27.1993 60.2425 24.2773L59.9725 24.1168L57.16 24.8481L57.9137 22.1143L57.7345 21.8331C54.6415 16.9093 58.195 10.4743 64.054 10.4743C66.0445 10.4743 67.9127 11.2506 69.3197 12.6568C70.726 14.0511 71.5015 15.9193 71.5015 17.8993V17.8993Z" fill="white"/>
</g>
<rect x="92" width="36" height="36" fill="#0F68AC"/>
<g clip-path="url(#clip2_1_1221)">
<path d="M108.063 20.3856L107.765 24.5736C108.191 24.5736 108.376 24.3906 108.597 24.1708L110.594 22.2621L114.733 25.2928C115.492 25.7158 116.026 25.4931 116.231 24.5946L118.948 11.8656L118.948 11.8648C119.189 10.7428 118.543 10.3041 117.803 10.5793L101.836 16.6926C100.746 17.1156 100.762 17.7231 101.65 17.9983L105.733 19.2681L115.215 13.3348C115.661 13.0393 116.067 13.2028 115.733 13.4983L108.063 20.3856Z" fill="white"/>
</g>
<rect x="138" width="36" height="36" fill="#0F68AC"/>
<g clip-path="url(#clip3_1_1221)">
<path d="M156.003 13.3784C153.451 13.3784 151.384 15.4469 151.384 17.9969C151.384 20.5492 153.453 22.6154 156.003 22.6154C158.555 22.6154 160.621 20.5469 160.621 17.9969C160.621 15.4447 158.553 13.3784 156.003 13.3784V13.3784ZM156.003 20.9947C154.346 20.9947 153.005 19.6529 153.005 17.9969C153.005 16.3409 154.347 14.9992 156.003 14.9992C157.659 14.9992 159.001 16.3409 159.001 17.9969C159.001 19.6529 157.66 20.9947 156.003 20.9947V20.9947Z" fill="white"/>
<path d="M159.711 9.05703C158.055 8.97978 153.953 8.98353 152.296 9.05703C150.839 9.12528 149.554 9.47703 148.519 10.5128C146.788 12.2438 147.009 14.5763 147.009 17.997C147.009 21.498 146.814 23.7765 148.519 25.4813C150.256 27.2183 152.623 26.991 156.003 26.991C159.471 26.991 160.668 26.9933 161.894 26.5185C163.561 25.8713 164.82 24.381 164.943 21.7043C165.021 20.0475 165.016 15.9465 164.943 14.289C164.794 11.1293 163.099 9.21303 159.711 9.05703V9.05703ZM162.332 24.336C161.197 25.4708 159.623 25.3695 155.981 25.3695C152.231 25.3695 150.727 25.425 149.63 24.3248C148.366 23.067 148.595 21.0473 148.595 17.985C148.595 13.8413 148.17 10.857 152.329 10.644C153.284 10.6103 153.565 10.599 155.971 10.599L156.004 10.6215C160.001 10.6215 163.137 10.203 163.325 14.361C163.368 15.3098 163.378 15.5948 163.378 17.9963C163.377 21.7028 163.447 23.2155 162.332 24.336V24.336Z" fill="white"/>
<path d="M160.804 14.2757C161.4 14.2757 161.884 13.7925 161.884 13.1964C161.884 12.6004 161.4 12.1172 160.804 12.1172C160.208 12.1172 159.725 12.6004 159.725 13.1964C159.725 13.7925 160.208 14.2757 160.804 14.2757Z" fill="white"/>
</g>
<defs>
<clipPath id="clip0_1_1221">
<rect width="18" height="18" fill="white" transform="translate(9 9)"/>
</clipPath>
<clipPath id="clip1_1_1221">
<rect width="18" height="18" fill="white" transform="translate(55 9)"/>
</clipPath>
<clipPath id="clip2_1_1221">
<rect width="18" height="18" fill="white" transform="translate(101 9)"/>
</clipPath>
<clipPath id="clip3_1_1221">
<rect width="18" height="18" fill="white" transform="translate(147 9)"/>
</clipPath>
</defs>
</svg>
